PathFileType	4	(X/Y/Z)	Walk8.trc
DataRate	CameraRate	NumFrames	NumMarkers	Units	OrigDataRate	OrigDataStartFrame	OrigNumFrames
200.000000	200.000000	8	59	mm	200.000000	485	515
Frame#	Times		RFHD		RACR1		RUA1		RFA1		RWRR		LACR1		LFA1		LWRU		RTH1		LTH4		CLAV		RWRU		LTH2		LFHD		LUA1		RBack		RCAR		LTH3		RElbow		T10		LASI		C7		LTH1		LLFC		LWRR		LTB2		STRN		LMT1		LTB4		LBHD		RTB1		RTH4		LMMAL		LTB1		LElbowM		LCAL		LCAR		RTH2		RPSI		LElbow		RBHD		LTB3		RTH3		LMT5		RLFC		RElbowM		RTB2		RTB4		LPSI		RMT1		RTB3		LLMAL		RASI		RCAL		RLMAL		RToe		LToe		RMMAL		RMT5
			X1	Y1	Z1	X2	Y2	Z2	X3	Y3	Z3	X4	Y4	Z4	X5	Y5	Z5	X6	Y6	Z6	X7	Y7	Z7	X8	Y8	Z8	X9	Y9	Z9	X10	Y10	Z10	X11	Y11	Z11	X12	Y12	Z12	X13	Y13	Z13	X14	Y14	Z14	X15	Y15	Z15	X16	Y16	Z16	X17	Y17	Z17	X18	Y18	Z18	X19	Y19	Z19	X20	Y20	Z20	X21	Y21	Z21	X22	Y22	Z22	X23	Y23	Z23	X24	Y24	Z24	X25	Y25	Z25	X26	Y26	Z26	X27	Y27	Z27	X28	Y28	Z28	X29	Y29	Z29	X30	Y30	Z30	X31	Y31	Z31	X32	Y32	Z32	X33	Y33	Z33	X34	Y34	Z34	X35	Y35	Z35	X36	Y36	Z36	X37	Y37	Z37	X38	Y38	Z38	X39	Y39	Z39	X40	Y40	Z40	X41	Y41	Z41	X42	Y42	Z42	X43	Y43	Z43	X44	Y44	Z44	X45	Y45	Z45	X46	Y46	Z46	X47	Y47	Z47	X48	Y48	Z48	X49	Y49	Z49	X50	Y50	Z50	X51	Y51	Z51	X52	Y52	Z52	X53	Y53	Z53	X54	Y54	Z54	X55	Y55	Z55	X56	Y56	Z56	X57	Y57	Z57	X58	Y58	Z58	X59	Y59	Z59

485	2.425	717.06	1434.1	29.102	625.12	1233.4	152.81	629.6	1098.1	244	705.3	857.78	290.05	725.33	757.82	257.23	637.67	1215.2	-214.05	726.6	845.14	-304.45	743.51	734.75	-318.86	656.42	649.42	205.02	624.84	569.84	-194.92	704.86	1193.9	-20.887	696.72	759.14	323.38	678.16	580.9	-171.71	735.63	1438.8	-65.72	671.85	1047.2	-273.27	511.15	1161.9	88.234	748.75	706.43	310.4	625.94	486.97	-166.43	635.48	969.77	281.57	475.78	1077.1	-15.897	680.1	827.71	-167.32	563.25	1276.8	-33.415	624.41	654.23	-216.5	646.4	394.04	-127.75	781.1	749.77	-270.37	613.67	209.92	-113.38	755.41	1090.1	-6.796	728.96	29.392	-42.513	630.76	209.38	-53.603	610.55	1361.9	-105	717.96	297.93	100.94	685.28	568.79	188.11	576.32	74.638	-1.0544	654.81	293.66	-60.046	611.04	903.31	-227.83	508.98	47.057	-36.691	794.17	699.25	-313.96	736.99	594.8	169.46	434.11	850.5	49.926	647.91	926.76	-290.74	586.37	1363.3	26.791	614.98	127.66	-48.424	717.6	491.3	165.47	632.47	21.259	-103.8	706.58	409.01	147.42	586.49	932.4	211.85	632.44	243.8	134.21	668.15	227.72	87.561	428.13	855.27	-55.788	645.8	47.307	45.857	625.89	155.83	75.091	553.73	60.222	-79.918	694.02	841.84	153.09	494.48	117.44	46.487	549.3	119.21	100.98	687.24	37.203	88.818	675.75	33.836	-18.965	575.94	122.38	22.126	607.98	46.548	125.9
486	2.43	722.76	1434	29.346	630.9	1233.2	152.93	635.17	1098	244.11	710.25	857.75	290.48	730.39	757.82	257.85	643.66	1215.3	-213.89	733.99	845.96	-304.03	752.33	735.79	-317.91	662.21	649.62	205.14	628.84	569.55	-194.67	710.6	1193.8	-20.672	701.47	759.11	323.85	682.19	580.38	-171.48	741.36	1438.7	-65.468	677.4	1047.3	-273.39	516.85	1162	88.188	753.63	706.52	311.19	629.39	486.7	-166.31	640.66	969.84	281.87	481.42	1077.2	-16.062	685.34	827.22	-167.32	569.05	1276.8	-33.296	628.96	654.01	-216.26	649.12	393.53	-127.66	789.53	751.48	-269.37	615.01	209.61	-113.28	760.97	1089.9	-5.9167	729.11	29.298	-42.52	632.05	208.96	-53.487	616.34	1361.8	-104.83	728.75	298.77	100.42	691.91	569.33	187.82	576.56	74.686	-0.81969	656.73	293.06	-59.901	617.49	903.14	-227.9	509.08	47.354	-36.555	803.43	701.03	-312.74	743.38	596.02	169.39	439.32	850.71	49.803	654.25	926.8	-290.83	592.1	1363.2	26.947	615.62	127.35	-48.305	725.02	492.32	164.68	632.46	21.266	-103.76	714.58	409.66	146.76	591.49	932.49	212.2	645.16	241.94	134.01	681.25	227.06	87.215	433.48	855.4	-55.798	665.07	46.481	45.744	641.38	153.84	74.929	553.91	60.352	-79.815	698.94	842	153.55	511.2	110.87	46.903	566.18	114.65	101.18	707.03	37.894	88.503	675.82	33.904	-19.023	592.4	118.77	22.263	627.61	44.237	125.94
487	2.435	728.45	1433.9	29.617	636.7	1233	153.06	640.75	1097.9	244.23	715.22	857.68	290.94	735.5	757.79	258.51	649.67	1215.4	-213.73	741.33	846.74	-303.63	761.12	736.82	-316.95	667.96	649.74	205.3	632.84	569.24	-194.43	716.35	1193.6	-20.458	706.25	759.04	324.35	686.21	579.84	-171.25	747.09	1438.7	-65.19	682.94	1047.4	-273.52	522.56	1162	88.151	758.54	706.58	312.01	632.86	486.41	-166.19	645.83	969.86	282.19	487.07	1077.2	-16.21	690.59	826.67	-167.25	574.87	1276.8	-33.168	633.49	653.76	-216.01	651.86	393.01	-127.57	797.91	753.18	-268.36	616.36	209.3	-113.18	766.53	1089.5	-5.1029	729.26	29.205	-42.532	633.36	208.54	-53.367	622.14	1361.7	-104.63	739.37	299.59	99.896	698.39	569.78	187.52	576.78	74.742	-0.56892	658.67	292.45	-59.757	623.94	902.93	-227.96	509.19	47.673	-36.421	812.65	702.81	-311.5	749.68	597.1	169.33	444.56	850.83	49.748	660.54	926.78	-290.92	597.84	1363	27.128	616.27	127.05	-48.182	732.23	493.22	163.87	632.47	21.277	-103.72	722.31	410.2	146.1	596.53	932.52	212.55	657.86	240.07	133.82	694.3	226.42	86.884	438.8	855.48	-55.734	684.42	45.822	45.67	656.94	151.92	74.79	554.08	60.492	-79.711	703.86	842.09	154.02	528.22	104.31	47.326	583.25	110.14	101.4	726.83	38.804	88.243	675.9	33.972	-19.08	609.05	115.2	22.415	647.37	42.107	126
488	2.44	734.14	1433.7	29.914	642.49	1232.8	153.2	646.34	1097.6	244.35	720.22	857.58	291.44	740.66	757.72	259.2	655.71	1215.4	-213.55	748.63	847.49	-303.24	769.87	737.84	-316	673.67	649.78	205.49	636.84	568.91	-194.19	722.1	1193.4	-20.243	711.07	758.94	324.88	690.23	579.28	-171.01	752.81	1438.6	-64.886	688.46	1047.5	-273.65	528.26	1161.9	88.124	763.49	706.59	312.86	636.34	486.11	-166.07	651.02	969.83	282.51	492.72	1077.3	-16.339	695.83	826.05	-167.13	580.69	1276.7	-33.028	638.01	653.49	-215.74	654.63	392.47	-127.49	806.25	754.87	-267.36	617.72	208.98	-113.07	772.08	1089.1	-4.3661	729.4	29.116	-42.55	634.67	208.11	-53.245	627.93	1361.5	-104.4	749.81	300.4	99.384	704.74	570.13	187.22	577	74.805	-0.30463	660.63	291.83	-59.615	630.38	902.67	-228	509.31	48.016	-36.285	821.81	704.59	-310.26	755.86	598.03	169.3	449.83	850.87	49.767	666.79	926.73	-291	603.57	1362.8	27.334	616.92	126.74	-48.056	739.22	494.01	163.05	632.48	21.293	-103.68	729.78	410.62	145.44	601.61	932.49	212.91	670.52	238.2	133.63	707.29	225.82	86.57	444.1	855.52	-55.594	703.84	45.357	45.642	672.55	150.09	74.677	554.26	60.641	-79.605	708.79	842.11	154.5	545.51	97.8	47.757	600.51	105.72	101.63	746.61	39.951	88.047	675.97	34.037	-19.131	625.85	111.71	22.583	667.22	40.194	126.11
489	2.445	739.84	1433.5	30.236	648.28	1232.5	153.36	651.93	1097.4	244.49	725.24	857.44	291.98	745.87	757.62	259.93	661.76	1215.4	-213.36	755.89	848.2	-302.87	778.57	738.85	-315.04	679.34	649.74	205.73	640.84	568.55	-193.95	727.86	1193.1	-20.027	715.93	758.81	325.43	694.25	578.71	-170.79	758.54	1438.4	-64.557	693.98	1047.5	-273.78	533.98	1161.9	88.107	768.46	706.56	313.73	639.82	485.78	-165.95	656.2	969.75	282.83	498.37	1077.2	-16.449	701.07	825.36	-166.96	586.53	1276.6	-32.874	642.5	653.2	-215.47	657.43	391.92	-127.4	814.54	756.54	-266.36	619.1	208.67	-112.96	777.63	1088.7	-3.7162	729.54	29.031	-42.578	636	207.68	-53.121	633.72	1361.3	-104.15	760.05	301.22	98.88	710.94	570.38	186.92	577.21	74.876	-0.030979	662.62	291.2	-59.476	636.83	902.37	-228.02	509.44	48.385	-36.143	830.92	706.36	-309.01	761.94	598.79	169.29	455.15	850.84	49.863	673	926.63	-291.07	609.31	1362.5	27.568	617.58	126.45	-47.926	745.97	494.66	162.22	632.49	21.314	-103.63	736.99	410.92	144.77	606.72	932.41	213.28	683.15	236.35	133.47	720.21	225.26	86.275	449.38	855.52	-55.376	723.3	45.112	45.662	688.19	148.38	74.591	554.44	60.802	-79.495	713.74	842.07	155	563.08	91.388	48.2	617.94	101.43	101.87	766.35	41.355	87.919	676.05	34.09	-19.17	642.8	108.33	22.771	687.14	38.53	126.26
490	2.45	745.54	1433.3	30.583	654.08	1232.2	153.54	657.52	1097.1	244.64	730.29	857.26	292.55	751.13	757.49	260.67	667.83	1215.4	-213.16	763.09	848.88	-302.51	787.21	739.85	-314.07	684.98	649.61	206	644.83	568.17	-193.71	733.62	1192.8	-19.809	720.83	758.63	326.01	698.27	578.12	-170.57	764.26	1438.2	-64.204	699.5	1047.5	-273.91	539.69	1161.7	88.104	773.47	706.47	314.62	643.32	485.43	-165.83	661.39	969.62	283.17	504.04	1077.2	-16.537	706.31	824.63	-166.73	592.37	1276.5	-32.702	646.96	652.89	-215.2	660.26	391.36	-127.32	822.78	758.2	-265.37	620.49	208.35	-112.85	783.18	1088.1	-3.1609	729.68	28.951	-42.618	637.34	207.25	-52.993	639.51	1361.1	-103.88	770.1	302.03	98.385	716.99	570.51	186.62	577.43	74.952	0.24714	664.64	290.57	-59.338	643.26	902.03	-228.03	509.57	48.782	-35.991	839.97	708.13	-307.76	767.92	599.37	169.31	460.5	850.73	50.04	679.18	926.49	-291.14	615.04	1362.1	27.832	618.24	126.16	-47.794	752.48	495.18	161.41	632.51	21.34	-103.57	743.92	411.1	144.12	611.87	932.26	213.67	695.72	234.53	133.32	733.04	224.77	86	454.64	855.49	-55.077	742.77	45.109	45.727	703.85	146.8	74.536	554.62	60.976	-79.379	718.7	841.96	155.5	580.89	85.116	48.657	635.52	97.286	102.13	786.01	43.029	87.858	676.13	34.124	-19.192	659.87	105.08	22.978	707.1	37.142	126.46
491	2.455	751.24	1433	30.956	659.87	1231.8	153.73	663.11	1096.7	244.8	735.37	857.05	293.15	756.43	757.31	261.43	673.91	1215.3	-212.95	770.25	849.53	-302.16	795.79	740.83	-313.1	690.58	649.39	206.31	648.82	567.76	-193.49	739.39	1192.4	-19.586	725.76	758.41	326.61	702.28	577.51	-170.36	769.98	1438	-63.826	705.02	1047.4	-274.03	545.42	1161.5	88.116	778.51	706.33	315.53	646.83	485.07	-165.7	666.58	969.43	283.52	509.7	1077.1	-16.603	711.55	823.84	-166.45	598.22	1276.3	-32.511	651.4	652.55	-214.92	663.12	390.78	-127.24	830.95	759.84	-264.38	621.89	208.04	-112.73	788.73	1087.6	-2.7056	729.82	28.876	-42.671	638.7	206.82	-52.863	645.29	1360.8	-103.58	779.94	302.86	97.901	722.89	570.54	186.34	577.66	75.034	0.52528	666.69	289.92	-59.203	649.69	901.67	-228.03	509.72	49.209	-35.824	848.94	709.89	-306.5	773.78	599.78	169.35	465.89	850.57	50.299	685.33	926.31	-291.19	620.78	1361.7	28.126	618.93	125.87	-47.66	758.75	495.54	160.61	632.54	21.37	-103.5	750.58	411.15	143.48	617.05	932.06	214.07	708.24	232.77	133.18	745.76	224.35	85.747	459.89	855.43	-54.698	762.21	45.369	45.835	719.49	145.38	74.511	554.82	61.165	-79.256	723.69	841.79	156.02	598.9	79.026	49.127	653.21	93.337	102.41	805.57	44.984	87.858	676.21	34.136	-19.19	677.02	102	23.206	727.06	36.053	126.7
492	2.46	756.95	1432.6	31.353	665.67	1231.4	153.94	668.69	1096.3	244.99	740.48	856.79	293.78	761.77	757.09	262.21	679.99	1215.2	-212.72	777.36	850.13	-301.82	804.31	741.8	-312.13	696.15	649.09	206.67	652.8	567.34	-193.27	745.17	1192	-19.357	730.74	758.16	327.23	706.3	576.88	-170.16	775.71	1437.8	-63.423	710.57	1047.4	-274.14	551.15	1161.3	88.147	783.57	706.13	316.45	650.35	484.68	-165.57	671.78	969.18	283.87	515.37	1076.9	-16.644	716.79	823.02	-166.13	604.07	1276.1	-32.297	655.82	652.18	-214.65	666.02	390.19	-127.16	839.06	761.45	-263.39	623.3	207.72	-112.61	794.29	1086.9	-2.3531	729.95	28.808	-42.741	640.08	206.38	-52.731	651.07	1360.5	-103.25	789.56	303.7	97.429	728.65	570.44	186.09	577.92	75.121	0.79989	668.77	289.26	-59.071	656.11	901.27	-228.01	509.87	49.668	-35.64	857.84	711.64	-305.25	779.54	599.99	169.43	471.31	850.35	50.64	691.44	926.11	-291.23	626.53	1361.3	28.453	619.63	125.6	-47.523	764.76	495.75	159.85	632.56	21.403	-103.43	756.97	411.09	142.86	622.27	931.8	214.48	720.68	231.08	133.06	758.35	224.02	85.515	465.11	855.35	-54.241	781.57	45.906	45.978	735.09	144.15	74.515	555.02	61.372	-79.125	728.72	841.56	156.53	617.09	73.161	49.609	670.99	89.61	102.7	824.98	47.226	87.91	676.29	34.119	-19.163	694.24	99.119	23.452	746.98	35.283	126.99
